<svg width="90" height="90" viewBox="0 0 90 90" fill="none" xmlns="http://www.w3.org/2000/svg">
<path d="M69.0001 29C69.0001 22.6348 66.4715 16.5303 61.9706 12.0294C57.4698 7.52856 51.3653 5 45.0001 5C38.6349 5 32.5304 7.52856 28.0295 12.0294C23.5286 16.5303 21.0001 22.6348 21.0001 29C21.0001 57 9.00006 65 9.00006 65H81.0001C81.0001 65 69.0001 57 69.0001 29Z" fill="#8357FF" stroke="#191919" stroke-width="8" stroke-linecap="round" stroke-linejoin="round"/>
<path d="M51.92 81C51.2168 82.2123 50.2074 83.2186 48.9929 83.9181C47.7785 84.6176 46.4015 84.9858 45 84.9858C43.5985 84.9858 42.2216 84.6176 41.0071 83.9181C39.7926 83.2186 38.7833 82.2123 38.08 81" stroke="#191919" stroke-width="8" stroke-linecap="round" stroke-linejoin="round"/>
<path d="M5 29C5 20.2 7.8 11.8 13 5" stroke="#191919" stroke-width="8" stroke-linecap="round" stroke-linejoin="round"/>
<path d="M85 29C85 20.3452 82.1929 11.9238 77 5" stroke="#191919" stroke-width="8" stroke-linecap="round" stroke-linejoin="round"/>
</svg>
